<?xml version="1.0" ?>
<svg xmlns="http://www.w3.org/2000/svg" xmlns:ev="http://www.w3.org/2001/xml-events" xmlns:xlink="http://www.w3.org/1999/xlink" baseProfile="full" height="230.0" version="1.1" width="1030.0">
  <defs/>
  <svg class="MatrixDrawing" height="230.0" id="runic-letter-matrix" width="1030.0">
    <defs/>
    <svg class="A-wrapper-insert" x="0.0" y="0.0">
      <defs/>
      <g class="A-wrapper-transform">
        <svg class="A" height="110.0" width="70.0">
          <defs/>
          <polyline fill="none" points="2.5,107.5 35.0,2.5 67.5,107.5" stroke="black" stroke-linecap="round" stroke-linejoin="round" stroke-width="5.0"/>
          <line fill="none" stroke="black" stroke-linecap="round" stroke-linejoin="round" stroke-width="5.0" x1="18.75" x2="51.25" y1="55.0" y2="55.0"/>
        </svg>
      </g>
    </svg>
    <svg class="B-wrapper-insert" x="80.0" y="0.0">
      <defs/>
      <g class="B-wrapper-transform">
        <svg class="B" height="110.0" width="70.0">
          <defs/>
          <polyline fill="none" points="2.5,2.5 2.5,107.5" stroke="black" stroke-linecap="round" stroke-linejoin="round" stroke-width="5.0"/>
          <polyline fill="none" points="2.5,2.5 67.5,28.75 2.5,55.0 67.5,81.25 2.5,107.5" stroke="black" stroke-linecap="round" stroke-linejoin="round" stroke-width="5.0"/>
        </svg>
      </g>
    </svg>
    <svg class="C-wrapper-insert" x="160.0" y="0.0">
      <defs/>
      <g class="C-wrapper-transform">
        <svg class="C" height="110.0" width="70.0">
          <defs/>
          <polyline fill="none" points="67.5,2.5 2.5,55.0 67.5,107.5" stroke="black" stroke-linecap="round" stroke-linejoin="round" stroke-width="5.0"/>
        </svg>
      </g>
    </svg>
    <svg class="D-wrapper-insert" x="240.0" y="0.0">
      <defs/>
      <g class="D-wrapper-transform">
        <svg class="D" height="110.0" width="70.0">
          <defs/>
          <polyline fill="none" points="2.5,2.5 67.5,55.0 2.5,107.5 2.5,2.5" stroke="black" stroke-linecap="round" stroke-linejoin="round" stroke-width="5.0"/>
        </svg>
      </g>
    </svg>
    <svg class="E-wrapper-insert" x="320.0" y="0.0">
      <defs/>
      <g class="E-wrapper-transform">
        <svg class="E" height="110.0" width="70.0">
          <defs/>
          <polyline fill="none" points="67.5,2.5 2.5,2.5 2.5,107.5 67.5,107.5" stroke="black" stroke-linecap="round" stroke-linejoin="round" stroke-width="5.0"/>
          <line fill="none" stroke="black" stroke-linecap="round" stroke-linejoin="round" stroke-width="5.0" x1="2.5" x2="67.5" y1="55.0" y2="55.0"/>
        </svg>
      </g>
    </svg>
    <svg class="F-wrapper-insert" x="400.0" y="0.0">
      <defs/>
      <g class="F-wrapper-transform">
        <svg class="F" height="110.0" width="70.0">
          <defs/>
          <polyline fill="none" points="67.5,2.5 2.5,2.5 2.5,107.5" stroke="black" stroke-linecap="round" stroke-linejoin="round" stroke-width="5.0"/>
          <line fill="none" stroke="black" stroke-linecap="round" stroke-linejoin="round" stroke-width="5.0" x1="2.5" x2="67.5" y1="55.0" y2="55.0"/>
        </svg>
      </g>
    </svg>
    <svg class="G-wrapper-insert" x="480.0" y="0.0">
      <defs/>
      <g class="G-wrapper-transform">
        <svg class="G" height="110.0" width="70.0">
          <defs/>
          <polyline fill="none" points="67.5,28.75 35.0,2.5 2.5,28.75 2.5,81.25 35.0,107.5 67.5,81.25 67.5,55.0 35.0,55.0" stroke="black" stroke-linecap="round" stroke-linejoin="round" stroke-width="5.0"/>
        </svg>
      </g>
    </svg>
    <svg class="H-wrapper-insert" x="560.0" y="0.0">
      <defs/>
      <g class="H-wrapper-transform">
        <svg class="H" height="110.0" width="70.0">
          <defs/>
          <line fill="none" stroke="black" stroke-linecap="round" stroke-linejoin="round" stroke-width="5.0" x1="2.5" x2="2.5" y1="2.5" y2="107.5"/>
          <line fill="none" stroke="black" stroke-linecap="round" stroke-linejoin="round" stroke-width="5.0" x1="67.5" x2="67.5" y1="2.5" y2="107.5"/>
          <line fill="none" stroke="black" stroke-linecap="round" stroke-linejoin="round" stroke-width="5.0" x1="2.5" x2="67.5" y1="55.0" y2="55.0"/>
        </svg>
      </g>
    </svg>
    <svg class="I-wrapper-insert" x="640.0" y="0.0">
      <defs/>
      <g class="I-wrapper-transform">
        <svg class="I" height="110.0" width="70.0">
          <defs/>
          <line fill="none" stroke="black" stroke-linecap="round" stroke-linejoin="round" stroke-width="5.0" x1="35.0" x2="35.0" y1="2.5" y2="107.5"/>
        </svg>
      </g>
    </svg>
    <svg class="J-wrapper-insert" x="720.0" y="0.0">
      <defs/>
      <g class="J-wrapper-transform">
        <svg class="J" height="110.0" width="70.0">
          <defs/>
          <polyline fill="none" points="67.5,2.5 67.5,81.25 35.0,107.5 2.5,81.25" stroke="black" stroke-linecap="round" stroke-linejoin="round" stroke-width="5.0"/>
        </svg>
      </g>
    </svg>
    <svg class="K-wrapper-insert" x="800.0" y="0.0">
      <defs/>
      <g class="K-wrapper-transform">
        <svg class="K" height="110.0" width="70.0">
          <defs/>
          <line fill="none" stroke="black" stroke-linecap="round" stroke-linejoin="round" stroke-width="5.0" x1="2.5" x2="2.5" y1="2.5" y2="107.5"/>
          <polyline fill="none" points="67.5,2.5 2.5,55.0 67.5,107.5" stroke="black" stroke-linecap="round" stroke-linejoin="round" stroke-width="5.0"/>
        </svg>
      </g>
    </svg>
    <svg class="L-wrapper-insert" x="880.0" y="0.0">
      <defs/>
      <g class="L-wrapper-transform">
        <svg class="L" height="110.0" width="70.0">
          <defs/>
          <polyline fill="none" points="2.5,2.5 2.5,107.5 67.5,107.5" stroke="black" stroke-linecap="round" stroke-linejoin="round" stroke-width="5.0"/>
        </svg>
      </g>
    </svg>
    <svg class="M-wrapper-insert" x="960.0" y="0.0">
      <defs/>
      <g class="M-wrapper-transform">
        <svg class="M" height="110.0" width="70.0">
          <defs/>
          <polyline fill="none" points="2.5,107.5 2.5,2.5 35.0,107.5 67.5,2.5 67.5,107.5" stroke="black" stroke-linecap="round" stroke-linejoin="round" stroke-width="5.0"/>
        </svg>
      </g>
    </svg>
    <svg class="N-wrapper-insert" x="0.0" y="120.0">
      <defs/>
      <g class="N-wrapper-transform">
        <svg class="N" height="110.0" width="70.0">
          <defs/>
          <polyline fill="none" points="2.5,107.5 2.5,2.5 67.5,107.5 67.5,2.5" stroke="black" stroke-linecap="round" stroke-linejoin="round" stroke-width="5.0"/>
        </svg>
      </g>
    </svg>
    <svg class="O-wrapper-insert" x="80.0" y="120.0">
      <defs/>
      <g class="O-wrapper-transform">
        <svg class="O" height="110.0" width="70.0">
          <defs/>
          <polyline fill="none" points="35.0,2.5 67.5,55.0 35.0,107.5 2.5,55.0 35.0,2.5" stroke="black" stroke-linecap="round" stroke-linejoin="round" stroke-width="5.0"/>
        </svg>
      </g>
    </svg>
    <svg class="P-wrapper-insert" x="160.0" y="120.0">
      <defs/>
      <g class="P-wrapper-transform">
        <svg class="P" height="110.0" width="70.0">
          <defs/>
          <polyline fill="none" points="2.5,107.5 2.5,2.5 67.5,28.75 2.5,55.0" stroke="black" stroke-linecap="round" stroke-linejoin="round" stroke-width="5.0"/>
        </svg>
      </g>
    </svg>
    <svg class="Q-wrapper-insert" x="240.0" y="120.0">
      <defs/>
      <g class="Q-wrapper-transform">
        <svg class="Q" height="110.0" width="70.0">
          <defs/>
          <polyline fill="none" points="35.0,2.5 67.5,55.0 35.0,107.5 2.5,55.0 35.0,2.5" stroke="black" stroke-linecap="round" stroke-linejoin="round" stroke-width="5.0"/>
          <line fill="none" stroke="black" stroke-linecap="round" stroke-linejoin="round" stroke-width="5.0" x1="35.0" x2="67.5" y1="55.0" y2="107.5"/>
        </svg>
      </g>
    </svg>
    <svg class="R-wrapper-insert" x="320.0" y="120.0">
      <defs/>
      <g class="R-wrapper-transform">
        <svg class="R" height="110.0" width="70.0">
          <defs/>
          <polyline fill="none" points="2.5,107.5 2.5,2.5 67.5,28.75 2.5,55.0 67.5,107.5" stroke="black" stroke-linecap="round" stroke-linejoin="round" stroke-width="5.0"/>
        </svg>
      </g>
    </svg>
    <svg class="S-wrapper-insert" x="400.0" y="120.0">
      <defs/>
      <g class="S-wrapper-transform">
        <svg class="S" height="110.0" width="70.0">
          <defs/>
          <polyline fill="none" points="67.5,28.75 35.0,2.5 2.5,28.75 67.5,81.25 35.0,107.5 2.5,81.25" stroke="black" stroke-linecap="round" stroke-linejoin="round" stroke-width="5.0"/>
        </svg>
      </g>
    </svg>
    <svg class="T-wrapper-insert" x="480.0" y="120.0">
      <defs/>
      <g class="T-wrapper-transform">
        <svg class="T" height="110.0" width="70.0">
          <defs/>
          <polyline fill="none" points="35.0,2.5 35.0,107.5" stroke="black" stroke-linecap="round" stroke-linejoin="round" stroke-width="5.0"/>
          <polyline fill="none" points="2.5,2.5 67.5,2.5" stroke="black" stroke-linecap="round" stroke-linejoin="round" stroke-width="5.0"/>
        </svg>
      </g>
    </svg>
    <svg class="U-wrapper-insert" x="560.0" y="120.0">
      <defs/>
      <g class="U-wrapper-transform">
        <svg class="U" height="110.0" width="70.0">
          <defs/>
          <polyline fill="none" points="2.5,2.5 2.5,81.25 35.0,107.5 67.5,81.25 67.5,2.5" stroke="black" stroke-linecap="round" stroke-linejoin="round" stroke-width="5.0"/>
        </svg>
      </g>
    </svg>
    <svg class="V-wrapper-insert" x="640.0" y="120.0">
      <defs/>
      <g class="V-wrapper-transform">
        <svg class="V" height="110.0" width="70.0">
          <defs/>
          <polyline fill="none" points="2.5,2.5 35.0,107.5 67.5,2.5" stroke="black" stroke-linecap="round" stroke-linejoin="round" stroke-width="5.0"/>
        </svg>
      </g>
    </svg>
    <svg class="W-wrapper-insert" x="720.0" y="120.0">
      <defs/>
      <g class="W-wrapper-transform">
        <svg class="W" height="110.0" width="70.0">
          <defs/>
          <polyline fill="none" points="2.5,2.5 18.75,107.5 35.0,2.5 51.25,107.5 67.5,2.5" stroke="black" stroke-linecap="round" stroke-linejoin="round" stroke-width="5.0"/>
        </svg>
      </g>
    </svg>
    <svg class="X-wrapper-insert" x="800.0" y="120.0">
      <defs/>
      <g class="X-wrapper-transform">
        <svg class="X" height="110.0" width="70.0">
          <defs/>
          <line fill="none" stroke="black" stroke-linecap="round" stroke-linejoin="round" stroke-width="5.0" x1="2.5" x2="67.5" y1="2.5" y2="107.5"/>
          <line fill="none" stroke="black" stroke-linecap="round" stroke-linejoin="round" stroke-width="5.0" x1="67.5" x2="2.5" y1="2.5" y2="107.5"/>
        </svg>
      </g>
    </svg>
    <svg class="Y-wrapper-insert" x="880.0" y="120.0">
      <defs/>
      <g class="Y-wrapper-transform">
        <svg class="Y" height="110.0" width="70.0">
          <defs/>
          <polyline fill="none" points="2.5,2.5 35.0,55.0 67.5,2.5" stroke="black" stroke-linecap="round" stroke-linejoin="round" stroke-width="5.0"/>
          <line fill="none" stroke="black" stroke-linecap="round" stroke-linejoin="round" stroke-width="5.0" x1="35.0" x2="35.0" y1="55.0" y2="107.5"/>
        </svg>
      </g>
    </svg>
    <svg class="Z-wrapper-insert" x="960.0" y="120.0">
      <defs/>
      <g class="Z-wrapper-transform">
        <svg class="Z" height="110.0" width="70.0">
          <defs/>
          <polyline fill="none" points="2.5,2.5 67.5,2.5 2.5,107.5 67.5,107.5" stroke="black" stroke-linecap="round" stroke-linejoin="round" stroke-width="5.0"/>
        </svg>
      </g>
    </svg>
  </svg>
</svg>
